<?xml version="1.0" standalone="no"?>
<!DOCTYPE svg PUBLIC "-//W3C//DTD SVG 20010904//EN"
 "http://www.w3.org/TR/2001/REC-SVG-20010904/DTD/svg10.dtd">
<svg version="1.0" xmlns="http://www.w3.org/2000/svg"
 width="300.000000pt" height="300.000000pt" viewBox="0 0 300.000000 300.000000"
 preserveAspectRatio="xMidYMid meet">
<metadata>
Created by potrace 1.11, written by Peter Selinger 2001-2013
</metadata>
<g transform="translate(0.000000,300.000000) scale(0.100000,-0.100000)"
fill="#000000" stroke="none">
<path d="M0 2956 c0 -46 44 -141 61 -131 5 4 6 0 3 -8 -3 -8 2 -20 11 -27 8
-7 15 -18 15 -24 0 -6 -5 -4 -10 4 -5 8 -10 10 -10 4 0 -6 7 -17 16 -24 16
-14 54 -86 54 -104 0 -5 6 -17 14 -25 14 -16 35 -213 21 -200 -3 4 -7 21 -7
39 -1 17 -6 34 -13 36 -6 3 -12 10 -12 17 0 7 -31 75 -69 152 -44 91 -69 133
-72 121 -2 -10 6 -42 18 -70 52 -120 50 -113 31 -130 -17 -15 -19 -15 -24 -1
-4 8 -11 15 -17 15 -13 0 -14 -217 0 -225 5 -3 10 -12 10 -18 0 -7 -4 -6 -10
3 -14 22 -13 -35 1 -62 6 -12 33 -83 59 -157 80 -230 93 -261 102 -261 5 0 16
-7 24 -15 9 -8 12 -15 8 -15 -4 0 1 -6 11 -14 17 -12 18 -16 5 -32 -13 -16
-13 -17 1 -12 18 7 22 -8 34 -132 7 -62 6 -64 -10 -42 -9 12 -20 22 -26 22 -5
0 0 -9 11 -20 30 -30 40 -64 45 -142 2 -37 7 -78 11 -90 6 -20 5 -21 -8 -10
-17 13 -31 65 -17 56 5 -3 9 -1 9 5 0 5 -5 13 -10 16 -14 8 -59 98 -64 127 -3
13 -5 25 -6 28 -2 3 -2 8 -1 12 1 7 -89 254 -126 351 -11 26 -22 45 -26 41 -3
-3 -2 -14 4 -23 17 -30 37 -126 28 -136 -12 -13 -11 -26 2 -22 12 2 18 -16 24
-81 3 -24 8 -48 11 -54 4 -7 3 -8 -4 -4 -6 4 -14 23 -18 44 -4 20 -11 43 -17
50 -5 7 -7 15 -4 19 4 3 -3 19 -14 35 -30 41 -33 29 -9 -33 11 -30 20 -65 20
-79 1 -14 7 -43 15 -65 11 -30 11 -36 1 -23 -7 10 -15 16 -18 13 -2 -3 -4 5
-2 18 1 12 -7 37 -18 56 -10 18 -23 50 -28 70 -8 30 -9 26 -6 -30 4 -68 13
-100 25 -81 3 6 7 -12 8 -39 1 -27 -2 -49 -7 -49 -6 0 -9 3 -9 8 1 4 1 9 -1
12 -1 3 -4 16 -6 29 -7 39 -14 38 -14 -2 0 -19 9 -56 20 -81 21 -51 19 -61 -4
-18 -19 34 -21 14 -3 -22 8 -14 17 -23 21 -19 4 4 4 -1 0 -11 -5 -13 -4 -17 3
-13 7 5 9 -1 5 -15 l-5 -22 -8 22 c-22 58 -28 10 -29 -226 -1 -229 1 -250 20
-289 25 -53 26 -70 0 -23 -19 35 -19 34 -20 -447 l0 -483 360 0 360 0 -16 38
c-9 20 -24 69 -34 107 -31 119 -62 175 -97 175 -8 0 -16 7 -20 16 -3 8 -11 13
-18 10 -10 -4 -65 37 -65 49 0 9 35 -9 43 -22 5 -7 13 -11 18 -7 5 3 16 0 24
-6 8 -6 19 -9 24 -5 7 4 8 -1 4 -11 -4 -11 -2 -15 4 -11 13 8 55 -55 73 -110
15 -48 25 -54 36 -21 4 13 14 29 23 36 12 10 12 12 1 6 -13 -7 -13 -5 -1 9 7
9 10 17 6 17 -4 0 3 9 16 21 13 11 17 17 9 13 -13 -7 -13 -5 0 12 26 33 41 64
35 74 -3 5 4 15 15 23 11 7 17 17 13 20 -3 4 -1 7 6 7 7 0 10 4 7 9 -4 5 -2
11 3 13 5 1 11 10 13 17 2 8 13 25 25 36 13 12 20 25 16 28 -3 4 1 7 10 7 9 0
19 5 23 12 5 7 2 9 -7 4 -8 -4 -6 -1 3 7 10 8 15 17 11 20 -3 4 1 9 10 13 9 3
13 12 10 20 -3 9 0 14 8 12 8 -2 20 16 30 47 12 36 22 50 36 50 10 0 24 4 32
9 11 7 12 6 6 -5 -8 -12 -6 -12 8 0 9 7 17 24 17 36 0 12 9 34 21 49 11 14 17
26 12 26 -4 0 0 7 10 15 23 17 48 9 40 -13 -3 -10 -1 -13 4 -7 4 6 27 24 49
42 62 48 76 39 133 -81 26 -55 56 -126 66 -156 11 -30 24 -62 31 -70 6 -8 9
-22 7 -30 -4 -13 -3 -13 5 -1 11 16 5 41 -10 41 -5 0 -7 4 -3 9 19 32 -115
441 -145 441 -6 0 -6 9 0 25 6 17 6 25 -1 25 -5 0 -9 8 -7 18 2 9 -3 16 -9 14
-7 -1 -13 2 -13 8 0 5 5 10 10 10 7 0 7 7 0 21 -7 12 -18 18 -26 15 -9 -3 -12
-1 -9 4 3 6 -2 13 -12 17 -10 4 -25 16 -34 27 -13 16 -20 18 -31 9 -11 -10
-16 -8 -26 8 -7 11 -18 17 -24 13 -8 -5 -5 -10 8 -15 17 -7 17 -8 -3 -8 -13
-1 -23 -6 -23 -12 0 -6 7 -9 15 -6 8 4 17 1 21 -5 4 -6 3 -8 -3 -5 -13 8 -36
-18 -53 -61 -9 -24 -19 -33 -34 -31 -38 3 -47 -1 -40 -13 6 -10 5 -10 -8 -1
-8 7 -17 11 -20 8 -3 -3 -17 1 -32 9 l-27 13 33 7 32 6 -23 16 c-18 13 -25 14
-34 4 -10 -10 -8 -11 8 -6 15 6 17 4 8 -5 -6 -6 -16 -8 -22 -5 -15 9 -2 36 18
37 11 0 12 2 3 6 -10 4 -10 8 -1 19 6 8 9 14 5 14 -4 0 0 13 9 30 8 16 15 35
15 42 0 7 -11 -6 -23 -28 -29 -55 -63 -95 -76 -92 -13 4 -22 -11 -99 -162 -32
-63 -73 -139 -90 -168 -17 -28 -29 -52 -25 -52 3 0 -1 -8 -10 -17 -8 -10 -16
-21 -16 -26 0 -4 -14 -34 -30 -67 -17 -33 -27 -60 -23 -60 4 -1 -4 -10 -17
-20 -13 -11 -18 -20 -11 -20 6 0 -4 -14 -22 -30 -18 -17 -26 -30 -18 -30 9 0
8 -4 -6 -14 -10 -8 -19 -20 -19 -28 -1 -7 -6 -12 -13 -11 -8 2 -10 -8 -6 -30
l5 -32 -16 37 -16 36 56 84 c31 45 77 126 103 178 46 95 151 296 223 424 22
38 39 77 39 88 0 13 4 17 13 12 9 -6 9 -4 -1 8 -10 13 -10 19 3 32 9 9 13 16
8 16 -5 0 -9 9 -9 20 0 11 4 20 9 20 4 0 5 5 2 10 -3 6 -2 10 4 10 5 0 8 12 5
26 -3 18 2 34 14 48 25 27 97 177 94 196 -1 11 0 11 4 2 5 -10 11 -9 27 5 21
18 21 18 7 -1 -14 -18 -14 -19 8 -7 14 7 27 28 34 56 7 25 16 45 20 45 4 0 8
6 8 14 0 7 11 21 25 30 14 9 25 12 25 6 0 -5 10 -11 23 -11 14 -1 16 -3 6 -6
-12 -3 -18 -21 -23 -60 -6 -49 -4 -57 15 -74 12 -11 31 -19 41 -19 11 0 16 -4
13 -10 -3 -5 0 -7 8 -5 8 4 19 -6 28 -22 8 -15 22 -34 31 -41 9 -7 17 -20 17
-30 0 -9 16 -62 36 -117 44 -122 81 -263 95 -370 7 -44 16 -90 22 -102 6 -13
9 -26 5 -29 -3 -4 0 -13 8 -21 9 -8 13 -27 11 -46 -2 -17 2 -40 8 -51 8 -14 8
-20 -1 -23 -10 -4 -9 -8 1 -19 8 -8 13 -23 11 -34 -2 -12 0 -18 6 -14 6 3 10
-2 9 -12 -5 -49 0 -85 13 -79 6 4 3 -1 -8 -11 -17 -14 -17 -16 -2 -11 11 4 17
1 17 -9 0 -8 4 -13 9 -9 6 3 8 -11 5 -32 -2 -21 -1 -33 3 -28 5 6 14 11 22 13
12 3 12 1 0 -14 -12 -16 -12 -17 3 -11 11 4 15 2 12 -7 -3 -7 2 -13 10 -13 8
0 13 4 10 9 -3 4 -1 8 5 8 5 0 12 -4 15 -9 3 -5 32 -8 63 -6 78 4 75 4 67 16
-5 8 -1 8 14 0 26 -14 42 -14 22 0 -12 9 -11 9 5 4 41 -15 65 -17 65 -6 0 7 5
9 10 6 6 -4 8 -9 6 -13 -2 -4 7 -8 20 -8 13 -1 24 -1 24 1 0 2 -28 21 -63 43
-34 21 -90 69 -124 105 -124 133 -135 267 -33 391 49 59 52 75 5 24 -24 -26
-40 -35 -52 -31 -15 6 -15 7 3 14 15 6 12 8 -13 8 -17 1 -35 5 -38 11 -4 6 1
7 11 3 12 -4 15 -3 10 5 -10 17 -62 43 -70 35 -3 -4 -6 -2 -6 4 0 13 48 24 55
13 3 -5 -1 -11 -7 -13 -10 -4 -9 -6 1 -6 8 -1 23 -9 34 -19 16 -13 19 -14 15
-2 -3 8 4 20 15 26 17 10 18 12 3 17 -10 4 -15 3 -11 -3 3 -6 1 -10 -4 -10
-18 0 -26 5 -23 12 1 5 -3 8 -9 8 -5 0 -7 4 -4 10 4 6 -1 7 -11 3 -13 -5 -15
-3 -9 7 5 9 4 11 -4 6 -6 -4 -9 -12 -6 -17 4 -5 -2 -9 -13 -9 -15 0 -18 5 -14
25 2 15 9 22 16 18 6 -4 4 1 -4 11 -8 11 -16 14 -18 7 -5 -16 -19 -14 -26 5
-3 8 -2 12 3 9 18 -10 22 14 7 37 -29 44 -135 442 -122 455 3 3 9 -3 12 -13 4
-10 12 -26 19 -34 7 -8 27 -51 45 -94 36 -90 51 -116 64 -116 5 0 18 -7 28
-17 18 -16 24 -9 19 20 -1 5 3 6 9 2 5 -3 10 -15 10 -26 0 -10 5 -19 11 -19 5
0 7 5 4 10 -3 6 1 10 10 10 9 0 13 5 9 11 -4 7 -1 10 7 7 8 -3 13 -10 12 -16
-1 -5 9 -9 22 -8 26 1 35 16 10 16 -7 0 -18 7 -23 16 -7 13 -13 14 -31 5 -23
-13 -30 3 -7 16 12 7 10 12 -10 30 -13 12 -24 19 -24 16 0 -3 -18 14 -40 38
-22 24 -40 52 -40 62 0 10 -7 31 -15 46 -8 16 -12 31 -9 33 2 3 -2 11 -11 18
-8 7 -15 25 -15 40 0 14 -3 30 -7 34 -4 3 -8 12 -9 19 -8 44 -15 75 -27 115
-25 81 -37 126 -40 147 -2 11 -8 30 -15 42 -7 12 -12 30 -12 40 0 10 -11 40
-24 68 -14 27 -22 53 -20 57 3 5 0 8 -5 8 -6 0 -11 11 -11 24 0 14 -5 28 -10
31 -6 4 -8 10 -5 15 3 5 -3 13 -12 19 -10 5 -17 13 -17 18 3 18 -20 53 -34 53
-8 0 -23 9 -33 21 -10 12 -23 18 -30 13 -8 -4 -9 -3 -5 4 4 7 2 12 -4 12 -6 0
-9 4 -6 9 3 4 -5 6 -18 4 -13 -3 -27 0 -30 6 -9 14 -26 14 -26 0 0 -5 4 -8 9
-4 20 12 22 -17 2 -31 -12 -8 -21 -24 -21 -35 0 -10 -5 -19 -11 -19 -5 0 -8
-4 -5 -9 4 -5 3 -16 0 -25 -7 -19 -45 -22 -40 -3 1 6 1 9 -1 5 -3 -5 -11 -8
-19 -8 -9 0 -13 -4 -10 -9 3 -5 -1 -11 -9 -15 -8 -3 -15 -12 -15 -21 0 -8 -5
-15 -11 -15 -5 0 -7 -5 -4 -10 4 -6 1 -17 -5 -25 -7 -8 -9 -15 -6 -15 4 0 -2
-9 -13 -21 -11 -12 -24 -18 -30 -15 -7 5 -8 1 -4 -10 5 -14 3 -16 -12 -11 -15
6 -17 3 -11 -25 4 -24 3 -29 -4 -18 -9 13 -13 12 -29 -7 -10 -12 -20 -21 -22
-20 -3 1 3 -4 11 -12 13 -11 12 -12 -10 -6 l-25 8 20 -23 20 -23 -21 11 c-19
10 -23 9 -28 -15 -4 -14 -18 -40 -32 -58 -26 -35 -31 -50 -11 -39 6 4 2 -4
-10 -18 -13 -13 -23 -30 -23 -37 0 -7 -4 -9 -10 -6 -5 3 -10 -3 -10 -14 0 -12
-7 -21 -15 -21 -8 0 -14 -3 -13 -7 3 -13 -13 -53 -22 -53 -4 0 -11 -12 -15
-27 -4 -16 -12 -34 -18 -42 -7 -7 -12 -21 -12 -30 0 -9 -5 -15 -11 -14 -7 1
-15 -13 -18 -32 -4 -21 -11 -32 -19 -29 -7 2 -20 -13 -30 -36 -21 -49 -21 -62
-2 -36 8 11 15 15 15 8 0 -15 -46 -45 -58 -38 -6 3 -12 -3 -15 -14 -3 -11 0
-20 6 -21 7 0 2 -4 -11 -9 -12 -5 -22 -14 -22 -20 0 -11 -22 -9 -31 3 -3 4
-16 -4 -29 -18 -26 -27 -21 -35 5 -9 13 14 19 14 28 4 9 -10 9 -11 -1 -6 -7 4
-15 1 -18 -8 -3 -9 -17 -16 -31 -16 -13 0 -33 -5 -44 -10 -10 -6 -19 -7 -19
-2 0 5 12 14 27 21 l26 12 -24 16 c-13 9 -27 21 -30 26 -4 5 -12 69 -19 141
-6 72 -15 146 -20 164 -8 32 3 46 14 17 3 -10 19 -15 47 -15 36 0 47 6 93 54
68 69 127 159 209 316 167 323 216 412 270 492 33 48 69 113 82 145 18 44 32
62 58 76 23 13 41 35 59 73 l25 54 -509 0 -508 0 -1 -22 c-1 -13 -1 -31 0 -40
4 -30 -8 -20 -25 22 -14 34 -21 40 -45 40 -28 0 -29 -2 -29 -44z m88 -375 c-2
-8 34 -82 67 -140 17 -29 28 -70 34 -125 12 -101 12 -160 1 -131 -4 11 -5 26
-2 34 4 10 1 12 -8 6 -10 -6 -12 -4 -7 8 3 10 2 17 -3 17 -5 0 -7 8 -3 18 3 9
2 14 -2 9 -9 -7 -59 102 -51 111 3 2 -4 24 -14 48 -11 24 -20 46 -20 49 0 3 0
11 0 18 0 9 -3 8 -9 -2 -7 -11 -10 -8 -16 10 -5 14 -3 25 4 27 7 2 8 9 1 21
-5 10 -7 20 -5 23 7 7 34 6 33 -1z m-37 -133 c5 -9 6 -19 1 -21 -4 -3 -15 14
-24 36 -15 34 -15 38 -2 22 8 -11 20 -28 25 -37z m27 -103 c-3 -3 -9 2 -12 12
-6 14 -5 15 5 6 7 -7 10 -15 7 -18z m30 -60 c12 -24 17 -47 12 -50 -11 -7 -15
0 -33 53 -19 55 -7 54 21 -3z m-25 -104 c10 -30 16 -56 13 -58 -2 -2 -11 18
-19 45 -9 26 -19 57 -23 68 -5 12 -4 16 3 9 5 -5 17 -34 26 -64z m62 2 c27
-41 34 -69 9 -37 -15 19 -15 18 -11 -3 3 -13 1 -23 -5 -23 -6 0 -8 13 -6 30 3
17 1 30 -3 30 -3 0 -9 9 -12 20 -7 29 -1 25 28 -17z m68 -121 c3 -24 1 -40 -4
-36 -5 3 -9 16 -9 29 0 13 -4 26 -10 30 -5 3 -6 13 -3 22 4 11 3 14 -5 9 -8
-4 -10 -2 -6 7 3 8 -2 31 -10 52 -26 61 -17 55 14 -10 15 -33 30 -79 33 -103z
m-66 -47 c2 -11 15 -44 28 -75 14 -30 18 -46 10 -36 -8 11 -29 56 -46 100 -42
108 -44 118 -18 71 13 -22 24 -49 26 -60z m41 -31 c-4 -3 -12 5 -18 18 -12 22
-12 22 6 6 10 -10 15 -20 12 -24z m-34 -350 c3 -8 2 -12 -4 -9 -6 3 -10 10
-10 16 0 14 7 11 14 -7z m-91 -52 c-12 -19 -25 -20 -32 -1 -2 7 2 10 11 6 12
-4 15 2 12 26 -3 30 -2 31 9 9 7 -17 8 -29 0 -40z m82 14 c9 -21 11 -35 6 -31
-6 3 -11 13 -11 21 0 8 -3 13 -7 11 -5 -3 -9 6 -9 20 -2 30 1 27 21 -21z m-36
-39 c1 -5 -3 -5 -9 -2 -5 3 -10 16 -9 28 0 21 1 21 9 2 5 -11 9 -24 9 -28z
m-45 -23 c-3 -16 -1 -23 6 -19 6 4 7 -1 3 -11 -5 -13 -3 -15 8 -9 11 6 12 5 2
-5 -8 -9 -9 -19 -3 -31 7 -12 6 -20 -2 -25 -6 -4 -8 -3 -4 4 3 5 1 12 -6 14
-16 6 -19 108 -3 108 2 0 2 -12 -1 -26z m74 -74 c0 -8 -6 1 -13 20 -7 19 -13
42 -13 50 0 8 6 -1 13 -20 7 -19 13 -42 13 -50z m-78 -41 c0 -6 9 -28 19 -50
11 -21 22 -57 26 -79 4 -22 12 -43 17 -46 13 -8 2 89 -12 116 -11 20 -2 62 11
54 5 -3 9 -17 9 -32 0 -15 7 -40 15 -56 9 -16 13 -31 10 -34 -3 -3 2 -16 10
-29 9 -13 11 -23 6 -23 -6 0 -8 -7 -5 -15 4 -8 11 -12 17 -8 6 4 7 1 2 -6 -4
-7 -3 -23 2 -34 6 -12 22 -48 37 -80 15 -32 29 -80 32 -105 5 -44 4 -46 -10
-28 -9 11 -16 27 -16 35 0 9 -20 53 -44 99 -24 45 -39 82 -34 82 5 0 3 7 -6
15 -8 8 -19 15 -25 15 -5 0 -23 42 -39 93 -46 141 -45 140 -33 133 6 -4 11
-12 11 -17z m115 -84 c10 -36 20 -53 27 -49 7 4 8 3 4 -4 -4 -7 -3 -12 2 -12
6 0 8 -8 6 -18 -3 -9 7 -44 22 -77 15 -33 28 -68 29 -78 1 -9 14 -31 30 -47
16 -16 26 -32 23 -35 -9 -9 -68 68 -68 88 0 10 -4 15 -10 12 -6 -4 -7 1 -3 11
4 12 3 15 -5 10 -8 -5 -10 -1 -5 10 3 10 2 15 -3 12 -5 -4 -10 7 -11 22 -1 16
-13 55 -26 87 -23 56 -41 123 -32 123 2 0 11 -25 20 -55z m112 -177 c-3 -8 -6
-5 -6 6 -1 11 2 17 5 13 3 -3 4 -12 1 -19z m619 -27 c-8 -12 20 -34 33 -27 5
4 13 1 16 -5 4 -5 13 -8 21 -5 8 3 14 2 14 -3 0 -9 -34 -21 -59 -21 -11 0 -9
4 5 16 10 8 13 12 6 9 -15 -8 -54 23 -46 36 3 5 7 9 10 9 3 0 3 -4 0 -9z m79
-71 c-3 -5 -12 -10 -18 -10 -7 0 -6 4 3 10 19 12 23 12 15 0z m-45 -14 c-7 -7
-13 -7 -20 0 -6 6 -3 10 10 10 13 0 16 -4 10 -10z m-593 -83 c-3 -10 -5 -2 -5
17 0 19 2 27 5 18 2 -10 2 -26 0 -35z m1278 10 c9 -17 12 -18 23 -6 7 7 10 18
7 23 -3 6 -2 10 4 10 19 0 24 -23 8 -35 -9 -7 -14 -14 -12 -17 3 -3 0 -18 -7
-34 -16 -40 -17 -102 -1 -148 13 -39 7 -55 -19 -56 -12 0 -9 18 3 22 6 2 8 14
4 30 -7 28 -44 45 -57 25 -5 -8 -8 -4 -8 11 0 23 25 31 33 10 2 -7 8 -10 12
-6 4 4 2 14 -4 22 -9 10 -9 16 -1 21 7 4 9 18 6 31 -4 16 -2 24 6 24 8 0 9 3
3 8 -5 4 -11 22 -12 41 -1 19 -8 39 -15 44 -10 6 -9 8 2 4 8 -2 20 -13 25 -24z
m-1305 7 c0 -5 -2 -10 -4 -10 -3 0 -8 5 -11 10 -3 6 -1 10 4 10 6 0 11 -4 11
-10z m37 -102 c-3 -7 -5 -2 -5 12 0 14 2 19 5 13 2 -7 2 -19 0 -25z m1249 -10
c4 -7 3 -8 -4 -4 -7 4 -12 0 -12 -10 0 -10 -3 -15 -6 -11 -7 6 2 37 10 37 3 0
8 -5 12 -12z m-1239 -40 c-3 -8 -6 -5 -6 6 -1 11 2 17 5 13 3 -3 4 -12 1 -19z
m20 -100 c-3 -7 -5 -2 -5 12 0 14 2 19 5 13 2 -7 2 -19 0 -25z m21 -93 c0 -16
-2 -15 -8 5 -4 14 -8 34 -8 45 0 16 2 15 8 -5 4 -14 8 -34 8 -45z m1272 55 c0
-15 87 -107 135 -143 22 -16 31 -26 20 -22 -11 4 -28 8 -37 9 -9 0 -14 5 -11
10 4 5 -1 7 -10 3 -12 -4 -14 -2 -10 10 5 13 1 15 -20 11 -15 -3 -24 -2 -21 3
2 4 -4 13 -13 19 -16 10 -15 10 4 5 18 -5 22 -3 17 10 -4 11 -13 14 -28 9 -19
-6 -19 -5 -7 10 12 14 12 16 -4 9 -15 -5 -17 -3 -12 11 6 15 3 17 -15 13 -21
-5 -21 -5 -6 7 13 10 15 15 6 24 -9 9 -9 12 0 12 7 0 12 -5 12 -10z m-1263
-102 c-3 -8 -6 -5 -6 6 -1 11 2 17 5 13 3 -3 4 -12 1 -19z m20 -80 c-3 -8 -6
-5 -6 6 -1 11 2 17 5 13 3 -3 4 -12 1 -19z"/>
<path d="M1314 2978 c24 -37 103 -238 130 -329 54 -187 90 -273 128 -309 12
-11 18 -20 13 -20 -5 0 -19 10 -32 21 l-22 22 4 -22 c2 -11 6 -25 9 -30 3 -5
-1 -11 -9 -15 -8 -3 -14 -2 -14 2 4 24 -3 42 -17 42 -9 0 -13 -5 -9 -12 4 -7
0 -5 -9 6 -9 10 -20 15 -27 10 -9 -5 -10 -2 -6 9 3 10 3 17 -2 17 -5 0 -12 12
-16 28 -4 15 -10 21 -12 15 -4 -12 48 -227 67 -276 4 -12 21 -62 36 -111 24
-73 37 -97 72 -133 24 -24 47 -41 51 -38 5 2 17 -4 28 -14 11 -10 31 -18 44
-16 13 1 16 0 7 -2 -19 -5 -25 -22 -8 -24 11 -2 25 -5 38 -9 4 -1 10 -2 15 -1
4 0 7 -4 7 -9 0 -6 -8 -10 -17 -10 -15 0 -16 -2 -3 -10 11 -7 19 -5 28 8 12
15 13 14 7 -9 -4 -18 -1 -30 11 -40 16 -13 16 -12 6 8 -9 16 -9 24 0 29 7 4 8
3 4 -4 -4 -7 -3 -12 2 -12 15 0 24 -31 13 -44 -7 -8 -5 -21 4 -40 8 -15 16
-35 17 -44 2 -9 8 -20 13 -24 6 -5 6 -8 -2 -8 -6 0 -9 -9 -6 -20 3 -11 -1 -28
-8 -37 -12 -15 -12 -16 6 -10 19 7 19 6 3 -7 -10 -7 -18 -19 -18 -26 0 -10 3
-10 15 0 9 7 18 11 20 8 3 -3 -6 -11 -20 -18 -14 -7 -25 -22 -25 -33 0 -11
-10 -28 -22 -38 -11 -11 -18 -19 -13 -19 4 0 2 -6 -4 -13 -9 -11 -1 -13 47
-11 31 1 59 4 62 5 3 1 9 1 14 0 4 -1 16 4 25 11 14 12 15 11 2 -4 -12 -16
-11 -18 5 -18 16 0 17 -2 4 -10 -15 -10 -14 -11 28 -15 17 -2 22 2 18 12 -3 8
-6 17 -6 19 0 3 -4 3 -9 -1 -5 -3 -12 -1 -16 5 -10 16 22 12 39 -6 16 -16 41
-10 30 7 -3 5 -2 8 3 7 4 -1 18 2 31 6 14 5 29 3 38 -5 8 -7 14 -8 13 -3 -3
19 1 34 11 34 5 0 7 -6 4 -14 -6 -17 27 -27 50 -14 9 5 14 13 11 19 -3 5 1 6
9 3 8 -3 24 -1 35 6 12 6 21 8 21 6 0 -3 -12 -12 -27 -19 l-26 -14 30 1 c17 0
29 4 26 9 -2 4 6 7 19 7 13 0 18 3 12 8 -9 5 -8 11 3 21 12 11 14 10 11 -5 -2
-14 3 -19 24 -19 15 -1 25 2 22 6 -2 4 0 10 6 14 5 3 10 1 10 -5 0 -6 13 -1
29 12 26 20 27 24 13 36 -9 6 -11 12 -5 12 6 0 16 -7 23 -15 10 -12 9 -16 -3
-21 -9 -3 -18 -13 -21 -21 -5 -13 -4 -14 9 -3 8 7 22 9 31 6 14 -5 16 -1 10
25 -6 31 -5 31 12 16 14 -13 21 -14 30 -5 8 8 15 8 24 1 9 -7 22 -7 38 -1 20
7 22 11 10 19 -12 8 -11 9 5 7 11 -1 26 1 32 5 9 5 11 3 7 -6 -4 -10 4 -16 25
-19 26 -4 29 -2 20 13 -8 16 -6 17 22 9 18 -5 37 -7 43 -3 6 3 5 0 -1 -8 -17
-17 -17 -32 -1 -23 16 10 48 13 48 4 0 -3 -6 -12 -12 -20 -11 -12 -10 -12 5
-1 9 8 20 11 24 8 3 -4 13 -1 21 6 13 10 14 9 10 -3 -2 -8 0 -20 6 -25 14 -14
56 -14 56 -1 0 5 3 6 6 3 4 -4 1 -13 -6 -21 -10 -13 -7 -15 25 -11 23 3 34 1
30 -5 -12 -19 5 -30 31 -19 22 8 25 7 20 -6 -3 -9 -2 -13 4 -10 6 4 10 311 10
830 l0 825 -204 0 c-154 0 -206 -3 -210 -12 -5 -10 -7 -10 -12 -1 -4 10 -150
13 -640 13 l-635 0 15 -22z m339 -665 c-7 -2 -19 -2 -25 0 -7 3 -2 5 12 5 14
0 19 -2 13 -5z m192 -535 c5 4 5 1 1 -6 -6 -10 -11 -10 -22 -1 -8 6 -14 14
-14 16 0 3 6 0 13 -6 8 -6 18 -7 22 -3z m10 -88 c-3 -5 -12 -10 -18 -10 -7 0
-6 4 3 10 19 12 23 12 15 0z m33 -95 c-3 -3 -9 2 -12 12 -6 14 -5 15 5 6 7 -7
10 -15 7 -18z m772 -79 c0 -2 -8 -10 -17 -17 -16 -13 -17 -12 -4 4 13 16 21
21 21 13z m-695 -66 c-3 -5 -12 -10 -18 -10 -7 0 -6 4 3 10 19 12 23 12 15 0z
m888 -15 c-3 -9 -8 -14 -10 -11 -3 3 -2 9 2 15 9 16 15 13 8 -4z m-1006 -37
c-9 -5 -14 -15 -11 -23 7 -17 -11 -20 -21 -4 -8 12 26 49 39 41 5 -2 1 -9 -7
-14z m250 -4 c-3 -3 -12 -4 -19 -1 -8 3 -5 6 6 6 11 1 17 -2 13 -5z m-217 -14
c18 -12 2 -12 -25 0 -13 6 -15 9 -5 9 8 0 22 -4 30 -9z"/>
<path d="M0 2853 c0 -10 14 -38 30 -62 36 -54 37 -50 5 23 -26 58 -35 69 -35
39z"/>
<path d="M0 2678 c0 -30 33 -92 43 -81 4 3 2 12 -3 19 -6 6 -13 21 -15 33 -2
11 -8 29 -14 38 -9 16 -10 14 -11 -9z"/>
<path d="M90 2673 c1 -11 39 -80 40 -72 0 11 -30 79 -35 79 -3 0 -5 -3 -5 -7z"/>
<path d="M1400 2461 c0 -6 4 -13 10 -16 6 -3 7 1 4 9 -7 18 -14 21 -14 7z"/>
<path d="M1 2225 c-1 -5 10 -39 24 -75 13 -36 24 -56 24 -45 0 20 -48 139 -48
120z"/>
<path d="M0 2098 c0 -23 21 -68 32 -68 14 0 9 24 -12 55 -14 21 -20 25 -20 13z"/>
<path d="M61 2044 c0 -11 3 -14 6 -6 3 7 2 16 -1 19 -3 4 -6 -2 -5 -13z"/>
<path d="M76 1995 c4 -16 11 -37 15 -45 6 -10 7 -4 3 15 -4 17 -11 37 -15 45
-6 10 -7 4 -3 -15z"/>
<path d="M101 1925 c1 -19 18 -51 18 -35 0 8 -4 22 -9 30 -5 8 -9 11 -9 5z"/>
<path d="M131 1907 c-1 -4 10 -35 24 -69 30 -73 32 -97 5 -48 -27 49 -24 32 7
-47 30 -77 31 -79 39 -70 4 4 0 17 -9 31 -19 28 -10 44 10 18 13 -15 13 -15 3
6 -6 12 -14 20 -19 18 -4 -3 -7 10 -8 27 0 27 -51 156 -52 134z"/>
<path d="M120 1865 c0 -5 5 -17 10 -25 5 -8 10 -10 10 -5 0 6 -5 17 -10 25 -5
8 -10 11 -10 5z"/>
<path d="M276 1775 c4 -8 12 -15 20 -15 20 0 17 7 -6 20 -16 9 -18 8 -14 -5z"/>
<path d="M223 1690 c2 -8 -3 -20 -12 -27 -9 -7 -11 -13 -5 -13 20 0 34 24 23
40 -9 13 -10 13 -6 0z"/>
<path d="M2596 1437 c3 -10 9 -15 12 -12 3 3 0 11 -7 18 -10 9 -11 8 -5 -6z"/>
<path d="M2489 1423 c-13 -15 -12 -15 9 -4 23 12 28 21 13 21 -5 0 -15 -7 -22
-17z"/>
<path d="M1895 1350 c-3 -5 -12 -7 -19 -4 -8 3 -16 2 -19 -3 -3 -4 10 -9 28
-10 36 -3 55 11 30 21 -8 3 -17 1 -20 -4z"/>
<path d="M2034 1335 c-10 -8 -14 -15 -7 -15 6 0 15 5 18 10 4 6 11 8 16 5 5
-4 9 -1 9 4 0 15 -13 14 -36 -4z"/>
<path d="M1810 1330 c8 -5 20 -10 25 -10 6 0 3 5 -5 10 -8 5 -19 10 -25 10 -5
0 -3 -5 5 -10z"/>
<path d="M1937 1309 c7 -7 15 -10 18 -7 3 3 -2 9 -12 12 -14 6 -15 5 -6 -5z"/>
<path d="M997 1134 c6 -15 23 -19 23 -5 0 5 -7 11 -14 14 -10 4 -13 1 -9 -9z"/>
<path d="M1160 523 c-27 -5 -45 -26 -75 -87 -13 -26 -33 -47 -55 -58 -18 -10
-39 -27 -45 -38 -8 -16 -13 -18 -23 -8 -9 9 -12 7 -12 -10 0 -12 -4 -22 -9
-22 -5 0 -12 -11 -15 -25 -4 -14 -11 -23 -16 -20 -6 3 -10 1 -10 -4 0 -6 -8
-11 -17 -11 -15 0 -16 -2 -3 -10 13 -8 12 -10 -3 -10 -10 0 -20 -7 -23 -15 -4
-11 -13 -14 -28 -9 -19 5 -19 5 -4 -7 15 -13 16 -15 0 -29 -14 -13 -15 -12 -9
3 3 9 3 17 -1 17 -12 0 -84 -159 -77 -170 9 -14 1745 -13 1745 1 0 6 -7 9 -15
5 -8 -3 -15 -2 -15 3 0 4 -7 8 -15 8 -8 0 -12 -4 -9 -9 8 -12 -10 -10 -24 4
-9 9 -15 9 -24 0 -13 -13 -32 -16 -24 -4 6 11 -36 9 -53 -2 -10 -6 -12 -6 -7
2 4 7 0 13 -11 13 -10 1 -31 3 -48 4 -16 1 -38 -2 -47 -7 -10 -5 -19 -4 -24 4
-4 6 -3 8 4 4 6 -3 13 -2 16 3 3 5 0 11 -8 14 -8 3 -17 0 -20 -8 -5 -14 -36
-14 -67 -1 -21 9 -52 4 -61 -9 -5 -6 -8 -5 -8 3 0 7 -5 10 -10 7 -5 -3 -10 -1
-10 5 0 7 -8 9 -21 5 -15 -5 -19 -4 -15 4 11 17 -5 13 -26 -6 -14 -12 -17 -13
-13 -2 4 11 -8 14 -70 12 -96 -2 -93 -1 -71 -18 11 -8 15 -15 9 -15 -7 0 -15
5 -18 10 -3 6 -16 10 -28 10 -18 0 -19 2 -7 10 18 13 -35 2 -63 -12 -9 -5 -22
-6 -27 -3 -6 3 -10 1 -10 -5 0 -7 -6 -10 -12 -7 -7 2 -22 1 -34 -4 -15 -5 -26
-2 -37 11 -8 10 -13 21 -10 24 6 6 -13 10 -30 7 -5 -1 -6 3 -2 9 6 9 -16 40
-29 40 -8 0 -7 -35 1 -43 7 -7 14 -57 8 -57 -2 0 -20 51 -40 113 -58 174 -125
329 -158 365 -32 33 -63 38 -137 25z m-347 -488 c-3 -9 -8 -14 -10 -11 -3 3
-2 9 2 15 9 16 15 13 8 -4z m907 11 c0 -2 -7 -6 -15 -10 -8 -3 -15 -1 -15 4 0
6 7 10 15 10 8 0 15 -2 15 -4z m-967 -21 c-3 -9 -8 -14 -10 -11 -3 3 -2 9 2
15 9 16 15 13 8 -4z"/>
<path d="M1460 510 c0 -5 5 -10 10 -10 6 0 10 5 10 10 0 6 -4 10 -10 10 -5 0
-10 -4 -10 -10z"/>
<path d="M1950 466 c0 -2 7 -7 16 -10 8 -3 12 -2 9 4 -6 10 -25 14 -25 6z"/>
<path d="M1496 409 c20 -55 28 -65 19 -19 -4 19 -13 41 -20 49 -11 11 -10 4 1
-30z"/>
<path d="M2957 426 c-15 -7 -24 -16 -20 -20 4 -4 -1 -4 -11 0 -13 5 -23 1 -32
-11 -8 -10 -14 -13 -14 -7 0 16 -12 15 -36 -4 -10 -8 -13 -12 -5 -8 9 4 12 3
7 -4 -3 -6 -15 -10 -26 -9 -10 1 -16 5 -14 9 7 10 0 10 -65 -6 -30 -7 -57 -19
-59 -27 -5 -12 -2 -12 14 1 19 14 19 14 0 -8 -19 -22 -32 -30 -21 -13 3 6 -3
15 -14 21 -13 7 -22 7 -26 0 -3 -5 -11 -10 -16 -10 -6 0 -7 5 -4 10 3 6 1 10
-4 10 -10 0 -15 -14 -12 -33 1 -4 -7 -3 -18 3 -11 5 -30 11 -43 11 -13 1 -6 5
17 9 l40 7 -44 2 c-40 1 -43 3 -39 26 3 13 2 22 -2 20 -4 -3 -17 4 -29 14 -22
19 -23 19 -82 -1 -32 -11 -56 -24 -53 -30 3 -5 -7 -23 -22 -39 -20 -21 -23
-28 -11 -23 14 5 18 2 15 -12 -3 -16 9 -21 89 -35 51 -9 90 -12 87 -8 -2 4 0
10 5 13 5 4 12 -3 16 -14 6 -19 10 -22 38 -24 6 -1 15 -5 18 -9 3 -5 12 -10
20 -11 30 -6 55 -21 83 -47 15 -15 48 -40 72 -55 24 -16 44 -31 44 -36 0 -4 9
-16 21 -27 13 -11 18 -24 14 -32 -5 -8 -4 -10 3 -5 7 4 12 2 12 -3 0 -7 29
-11 75 -11 l75 0 0 220 c0 121 -3 220 -7 219 -5 0 -20 -6 -36 -13z m-197 -76
c-8 -5 -19 -10 -25 -10 -5 0 -3 5 5 10 8 5 20 10 25 10 6 0 3 -5 -5 -10z
m-150 -120 c0 -5 -2 -10 -4 -10 -3 0 -8 5 -11 10 -3 6 -1 10 4 10 6 0 11 -4
11 -10z"/>
<path d="M2105 405 c17 -8 37 -14 45 -14 8 0 -1 7 -20 14 -46 18 -64 17 -25 0z"/>
<path d="M2170 386 c0 -2 9 -6 20 -9 11 -3 18 -1 14 4 -5 9 -34 13 -34 5z"/>
<path d="M1521 337 c2 -1 13 -9 24 -17 19 -14 19 -14 6 3 -7 9 -18 17 -24 17
-6 0 -8 -1 -6 -3z"/>
<path d="M1556 274 c-5 -14 -4 -15 9 -4 17 14 19 20 6 20 -5 0 -12 -7 -15 -16z"/>
<path d="M1625 280 c3 -5 8 -10 11 -10 2 0 4 5 4 10 0 6 -5 10 -11 10 -5 0 -7
-4 -4 -10z"/>
<path d="M1582 259 c-8 -12 -8 -19 -2 -19 5 0 10 6 10 13 1 7 6 5 14 -5 16
-21 26 -23 26 -5 0 7 -8 17 -18 24 -15 9 -21 7 -30 -8z"/>
<path d="M1640 250 c0 -5 5 -10 11 -10 5 0 7 5 4 10 -3 6 -8 10 -11 10 -2 0
-4 -4 -4 -10z"/>
<path d="M1670 247 c0 -10 8 -17 18 -17 9 0 13 4 7 8 -5 4 -13 11 -17 16 -5 5
-8 2 -8 -7z"/>
<path d="M2505 10 c-16 -7 -17 -9 -3 -9 9 -1 20 4 23 9 7 11 7 11 -20 0z"/>
<path d="M2575 10 c-3 -5 -1 -10 4 -10 6 0 11 5 11 10 0 6 -2 10 -4 10 -3 0
-8 -4 -11 -10z"/>
</g>
</svg>
